<svg xmlns="http://www.w3.org/2000/svg" xmlns:xlink="http://www.w3.org/1999/xlink" width="1279" zoomAndPan="magnify" viewBox="0 0 959.25 555.000006" height="740" preserveAspectRatio="xMidYMid meet" version="1.0"><defs><clipPath id="43f05f6009"><path d="M 800.132812 448.742188 L 839.335938 448.742188 L 839.335938 526.734375 L 800.132812 526.734375 Z M 800.132812 448.742188 " clip-rule="nonzero"/></clipPath><clipPath id="24d9152c06"><path d="M 843.949219 431.105469 L 854.40625 431.105469 L 854.40625 470.308594 L 843.949219 470.308594 Z M 843.949219 431.105469 " clip-rule="nonzero"/></clipPath><clipPath id="418301894c"><path d="M 785.074219 431 L 796 431 L 796 471 L 785.074219 471 Z M 785.074219 431 " clip-rule="nonzero"/></clipPath></defs><path fill="#d14d72" d="M 180.179688 293.878906 C 176.5 295.007812 172.910156 296.4375 169.488281 297.996094 L 172.765625 307.507812 C 176.070312 305.960938 179.546875 304.589844 183.125 303.492188 C 227.976562 289.742188 276.496094 318.050781 291.453125 366.835938 C 291.640625 367.453125 291.84375 368.074219 292.019531 368.691406 L 300.691406 365.796875 C 300.53125 365.246094 300.359375 364.707031 300.191406 364.15625 C 283.605469 310.066406 229.902344 278.636719 180.179688 293.882812 Z M 180.179688 293.878906 " fill-opacity="1" fill-rule="nonzero"/><path fill="#d14d72" d="M 185.324219 318.953125 C 182.535156 319.804688 179.808594 320.890625 177.214844 322.070312 L 180.191406 330.824219 C 182.699219 329.652344 185.335938 328.613281 188.050781 327.78125 C 222.066406 317.351562 256.394531 337.914062 267.738281 374.914062 C 267.882812 375.382812 268.035156 375.855469 268.171875 376.324219 L 276.726562 373.492188 C 276.605469 373.074219 276.472656 372.667969 276.34375 372.25 C 263.765625 331.230469 223.035156 307.390625 185.324219 318.949219 Z M 185.324219 318.953125 " fill-opacity="1" fill-rule="nonzero"/><path fill="#d14d72" d="M 190.007812 341.867188 C 188.03125 342.472656 186.097656 343.242188 184.257812 344.078125 L 187.074219 352.492188 C 188.855469 351.660156 190.722656 350.921875 192.648438 350.332031 C 217.191406 344.257812 236.324219 355.894531 245.679688 382.441406 C 245.78125 382.773438 245.890625 383.109375 245.988281 383.441406 L 254.828125 380.546875 C 254.742188 380.25 254.648438 379.960938 254.558594 379.664062 C 245.636719 350.574219 216.753906 333.667969 190.007812 341.867188 Z M 190.007812 341.867188 " fill-opacity="1" fill-rule="nonzero"/><path fill="#d14d72" d="M 135.140625 478.554688 C 127.25 503.6875 119.90625 528.804688 106.9375 553.941406 C 153.8125 553.875 163.699219 553.722656 210.574219 553.652344 C 202.167969 537.472656 194.945312 519.679688 189.585938 503.496094 C 169.953125 500.109375 151.96875 492.945312 135.144531 478.554688 Z M 138.339844 492.640625 L 145.773438 497.746094 C 139.277344 521.152344 127.492188 540.878906 118.511719 548.429688 C 125.648438 530.835938 131 518.5625 138.339844 492.640625 Z M 138.339844 492.640625 " fill-opacity="1" fill-rule="nonzero"/><path fill="#d14d72" d="M 93.726562 353.355469 C 86.722656 403.039062 110.898438 453.9375 157.816406 478.734375 C 204.738281 503.535156 260.320312 494.824219 297.421875 461.042969 Z M 104.167969 374.089844 L 121.835938 384.011719 C 122.390625 413.003906 129.707031 429.207031 139.847656 452.121094 C 118.816406 431.480469 104.699219 406.46875 104.167969 374.09375 Z M 104.167969 374.089844 " fill-opacity="1" fill-rule="nonzero"/><path fill="#d14d72" d="M 199.957031 387.9375 L 208.933594 392.644531 L 197.347656 414.742188 L 188.367188 410.035156 Z M 199.957031 387.9375 " fill-opacity="1" fill-rule="nonzero"/><path fill="#d14d72" d="M 214.84375 393.128906 C 211.84375 398.847656 205.234375 401.296875 200.085938 398.597656 C 194.9375 395.898438 193.195312 389.070312 196.195312 383.351562 C 199.195312 377.628906 205.804688 375.179688 210.953125 377.882812 C 216.101562 380.582031 217.84375 387.40625 214.84375 393.128906 Z M 214.84375 393.128906 " fill-opacity="1" fill-rule="nonzero"/><g clip-path="url(#43f05f6009)"><path fill="#bc2967" d="M 820.546875 507.757812 L 824.210938 505.785156 L 833.96875 510.304688 L 820.546875 517.53125 Z M 824.378906 470.882812 L 826.730469 479.09375 L 820.546875 475.875 L 820.546875 472.945312 Z M 820.546875 457.519531 L 823.8125 468.910156 L 820.550781 467.210938 L 820.550781 469.027344 L 822.523438 470.054688 L 820.546875 471.117188 Z M 829.644531 489.25 L 820.582031 484.53125 L 827.261719 480.9375 Z M 832.558594 499.417969 L 823.367188 494.636719 L 830.140625 490.988281 Z M 828.097656 490.257812 L 821.640625 493.734375 L 820.546875 493.167969 L 820.546875 486.332031 Z M 820.546875 477.6875 L 825.300781 480.164062 L 820.546875 482.722656 Z M 820.546875 502.117188 L 820.546875 496.15625 L 821.652344 495.558594 L 830.882812 500.363281 L 824.351562 503.878906 Z M 820.546875 504.085938 L 822.386719 504.9375 L 820.546875 505.925781 Z M 835.289062 508.945312 L 826.179688 504.726562 L 833.023438 501.039062 Z M 817.113281 504.894531 L 818.9375 504.027344 L 818.9375 505.84375 Z M 818.9375 517.445312 L 805.460938 510.433594 L 815.289062 505.761719 L 818.9375 507.660156 Z M 806.429688 501.148438 L 813.300781 504.726562 L 804.160156 509.070312 Z M 809.320312 491.054688 L 816.09375 494.578125 L 806.890625 499.539062 Z M 812.21875 480.957031 L 818.878906 484.425781 L 809.820312 489.3125 Z M 815.109375 470.859375 L 818.9375 472.847656 L 818.9375 475.761719 L 812.746094 479.105469 Z M 818.9375 457.507812 L 818.9375 467.113281 L 815.679688 468.867188 Z M 818.9375 482.636719 L 814.179688 480.160156 L 818.9375 477.589844 Z M 818.9375 471.035156 L 816.964844 470.007812 L 818.9375 468.945312 Z M 817.808594 493.652344 L 811.375 490.304688 L 818.9375 486.226562 L 818.9375 493.042969 Z M 818.9375 496.058594 L 818.9375 502.046875 L 815.125 503.859375 L 808.582031 500.453125 L 817.820312 495.476562 Z M 834.023438 498.671875 L 831.59375 490.207031 L 831.140625 488.621094 L 828.714844 480.15625 L 828.257812 478.570312 L 825.832031 470.101562 L 825.378906 468.515625 L 821.308594 454.320312 C 822.136719 453.796875 822.695312 452.878906 822.695312 451.824219 C 822.695312 450.195312 821.371094 448.871094 819.742188 448.871094 C 818.109375 448.871094 816.789062 450.195312 816.789062 451.824219 C 816.789062 452.878906 817.34375 453.796875 818.175781 454.320312 L 814.105469 468.519531 L 813.652344 470.101562 L 811.210938 478.617188 L 810.757812 480.195312 L 808.316406 488.714844 L 807.863281 490.292969 L 805.421875 498.808594 L 804.96875 500.390625 L 800.195312 517.054688 L 800.816406 517.734375 L 801.742188 517.496094 L 803.535156 511.246094 L 818.9375 519.265625 L 818.9375 526.308594 L 819.785156 526.734375 L 820.546875 526.308594 L 820.546875 519.359375 L 835.902344 511.09375 L 837.742188 517.496094 L 838.703125 517.667969 L 839.289062 517.054688 L 834.476562 500.257812 L 834.023438 498.671875 " fill-opacity="1" fill-rule="nonzero"/></g><path fill="#bc2967" d="M 828.289062 459.089844 C 828.582031 459.382812 828.960938 459.527344 829.34375 459.527344 C 829.726562 459.527344 830.109375 459.382812 830.398438 459.089844 C 832.546875 456.941406 833.628906 454.109375 833.625 451.292969 C 833.628906 448.476562 832.546875 445.648438 830.398438 443.5 C 829.816406 442.917969 828.871094 442.917969 828.289062 443.5 C 827.707031 444.082031 827.707031 445.027344 828.289062 445.609375 C 829.863281 447.183594 830.640625 449.230469 830.644531 451.292969 C 830.640625 453.355469 829.863281 455.40625 828.289062 456.980469 C 827.707031 457.5625 827.707031 458.511719 828.289062 459.089844 " fill-opacity="1" fill-rule="nonzero"/><path fill="#bc2967" d="M 810.140625 459.527344 C 810.523438 459.527344 810.902344 459.382812 811.195312 459.089844 C 811.777344 458.507812 811.777344 457.5625 811.195312 456.980469 C 809.621094 455.40625 808.839844 453.355469 808.839844 451.292969 C 808.839844 449.230469 809.621094 447.183594 811.195312 445.609375 C 811.777344 445.023438 811.777344 444.082031 811.195312 443.5 C 810.613281 442.917969 809.667969 442.917969 809.085938 443.5 C 806.9375 445.648438 805.855469 448.476562 805.855469 451.292969 C 805.855469 454.109375 806.933594 456.941406 809.085938 459.089844 C 809.375 459.382812 809.757812 459.527344 810.140625 459.527344 " fill-opacity="1" fill-rule="nonzero"/><path fill="#bc2967" d="M 835.734375 437.617188 C 835.152344 438.199219 835.152344 439.144531 835.738281 439.726562 L 835.734375 439.726562 C 838.753906 442.746094 840.253906 446.6875 840.257812 450.640625 C 840.253906 454.597656 838.753906 458.539062 835.734375 461.558594 C 835.152344 462.140625 835.152344 463.085938 835.738281 463.667969 C 836.027344 463.957031 836.410156 464.105469 836.789062 464.105469 C 837.171875 464.105469 837.550781 463.957031 837.84375 463.667969 C 841.4375 460.070312 843.242188 455.351562 843.238281 450.640625 C 843.242188 445.933594 841.4375 441.210938 837.84375 437.617188 C 837.261719 437.035156 836.316406 437.035156 835.734375 437.617188 " fill-opacity="1" fill-rule="nonzero"/><path fill="#bc2967" d="M 802.691406 464.105469 C 803.074219 464.105469 803.457031 463.957031 803.746094 463.667969 C 804.328125 463.085938 804.328125 462.140625 803.746094 461.558594 C 800.730469 458.539062 799.226562 454.597656 799.226562 450.640625 C 799.226562 446.6875 800.730469 442.746094 803.746094 439.726562 C 804.328125 439.144531 804.328125 438.199219 803.746094 437.617188 C 803.164062 437.035156 802.21875 437.035156 801.640625 437.617188 L 801.636719 437.617188 C 798.046875 441.210938 796.242188 445.933594 796.242188 450.640625 C 796.242188 455.351562 798.042969 460.074219 801.636719 463.667969 C 801.929688 463.957031 802.3125 464.105469 802.691406 464.105469 " fill-opacity="1" fill-rule="nonzero"/><g clip-path="url(#24d9152c06)"><path fill="#bc2967" d="M 846.496094 431.542969 C 845.914062 430.960938 844.96875 430.960938 844.386719 431.542969 C 843.804688 432.125 843.804688 433.070312 844.386719 433.652344 C 849.082031 438.347656 851.425781 444.488281 851.425781 450.640625 C 851.425781 456.796875 849.082031 462.9375 844.386719 467.632812 C 843.804688 468.214844 843.804688 469.160156 844.386719 469.742188 C 844.679688 470.03125 845.058594 470.179688 845.441406 470.179688 C 845.824219 470.179688 846.203125 470.03125 846.496094 469.742188 C 851.765625 464.472656 854.410156 457.550781 854.40625 450.640625 C 854.410156 443.734375 851.765625 436.8125 846.496094 431.542969 " fill-opacity="1" fill-rule="nonzero"/></g><g clip-path="url(#418301894c)"><path fill="#bc2967" d="M 788.058594 450.640625 C 788.0625 444.488281 790.402344 438.347656 795.097656 433.652344 C 795.679688 433.070312 795.679688 432.125 795.097656 431.542969 C 794.511719 430.960938 793.570312 430.960938 792.988281 431.542969 C 787.714844 436.8125 785.074219 443.734375 785.074219 450.640625 C 785.074219 457.550781 787.714844 464.472656 792.988281 469.742188 C 793.277344 470.03125 793.660156 470.179688 794.042969 470.179688 C 794.421875 470.179688 794.804688 470.03125 795.097656 469.742188 C 795.679688 469.160156 795.679688 468.214844 795.097656 467.632812 C 790.402344 462.9375 788.0625 456.796875 788.058594 450.640625 " fill-opacity="1" fill-rule="nonzero"/></g></svg>